<svg id="controller-svg" xmlns="http://www.w3.org/2000/svg" viewBox="0 0 640 518" style="width: 80%; height: auto; max-width: 80%;" stroke-width="0">

  <g id="Controller_infills">
    <path d="M622.95,326.87c-29.09-128.96-37.19-148.52-47.08-165.39-6.92-11.81-15.21-23.77-19.53-29.84-1.47-2.07-3.77-3.37-6.31-3.57-38.85-3.04-71.02-2.57-79.95-2.35-1.06.03-2.06.45-2.82,1.18l-2.73,2.63c-1.73,1.66-4,2.58-6.4,2.58H181.88c-2.4,0-4.67-.92-6.4-2.58l-2.73-2.63c-.76-.74-1.77-1.16-2.82-1.18-8.93-.22-41.11-.69-79.95,2.35-2.54.2-4.84,1.5-6.32,3.57-4.32,6.07-12.61,18.03-19.53,29.84-9.88,16.88-17.99,36.43-47.08,165.43-7.25,34.62-20.46,118.95,13.61,153.45,14.34,14.52,34.26,20.73,53.29,16.6,23.23-5.03,42.3-24.84,53.71-55.79,5.08-13.79,9.26-25.52,12.62-34.94,13.92-39.03,17.22-48.31,30.19-51.55l.3-.08h.31s77.55.17,77.55.17h122.75l77.86-.17.3.08c12.97,3.24,16.27,12.52,30.19,51.55,3.36,9.43,7.54,21.16,12.62,34.94,11.4,30.95,30.48,50.76,53.71,55.79,19.04,4.12,38.96-2.09,53.29-16.6,34.07-34.5,20.86-118.83,13.6-153.49Z"/>
    <path d="M274.86,314.85c0-30.28-24.63-54.91-54.92-54.91s-54.92,24.63-54.92,54.91,24.63,54.92,54.92,54.92,54.92-24.63,54.92-54.92Z"/>
    <path d="M420.06,259.93c-30.28,0-54.92,24.63-54.92,54.91s24.63,54.92,54.92,54.92,54.92-24.63,54.92-54.92-24.63-54.91-54.92-54.91Z"/>
  </g>
  <g id="Button_infills">
    <g id="Down_infill">
      <path d="M104.86,265.19v-6.44c0-5.03,1.96-9.87,5.46-13.49l7.64-7.89c3-3.09,8-2.99,10.87.22l6.95,7.79c3.17,3.55,4.92,8.14,4.92,12.9v6.9c0,6.43-5.21,11.64-11.64,11.64h-12.57c-6.43,0-11.64-5.21-11.64-11.64Z"/>
    </g>
    <g id="PS_infill">
      <circle cx="320.16" cy="314.85" r="13.82"/>
    </g>
    <g id="Right_infill">
      <path d="M163.28,242.61h-6.44c-5.03,0-9.87-1.96-13.49-5.46l-7.89-7.64c-3.09-3-2.99-8,.22-10.87l7.79-6.95c3.55-3.17,8.14-4.92,12.9-4.92h6.9c6.43,0,11.64,5.21,11.64,11.64v12.57c0,6.43-5.21,11.64-11.64,11.64Z"/>
    </g>
    <g id="Left_infill">
      <path d="M82.28,206.77h6.44c5.03,0,9.87,1.96,13.49,5.46l7.89,7.64c3.09,3,2.99,8-.22,10.87l-7.79,6.95c-3.55,3.17-8.14,4.92-12.9,4.92h-6.9c-6.43,0-11.64-5.21-11.64-11.64v-12.57c0-6.43,5.21-11.64,11.64-11.64Z"/>
    </g>
    <g id="Up_infill">
      <path d="M140.7,184.19v6.44c0,5.03-1.96,9.87-5.46,13.49l-7.64,7.89c-3,3.09-8,2.99-10.87-.22l-6.95-7.79c-3.17-3.55-4.92-8.14-4.92-12.9v-6.9c0-6.43,5.21-11.64,11.64-11.64h12.57c6.43,0,11.64,5.21,11.64,11.64Z"/>
    </g>
    <g id="Triangle_infill">
      <circle cx="517.22" cy="178.98" r="19.67"/>
    </g>
    <g id="Cross_infill">
      <circle cx="517.22" cy="270.62" r="19.67"/>
    </g>
    <g id="Circle_infill">
      <circle cx="563.04" cy="224.8" r="19.67"/>
    </g>
    <g id="Square_infill">
      <circle cx="471.4" cy="224.8" r="19.67"/>
    </g>
    <g id="Options_infill">
      <rect x="437.88" y="144.01" width="16.52" height="32.55" rx="8.26" ry="8.26" transform="translate(892.28 320.56) rotate(-180)"/>
    </g>
    <g id="Create_infill">
      <rect x="185.6" y="144.01" width="16.52" height="32.55" rx="8.26" ry="8.26"/>
    </g>
    <g id="R2_infill">
      <path d="M472.73,80.69l2.79-35.54c1.25-15.98,14.77-28.21,30.8-27.85h0c13.24.3,24.75,9.19,28.38,21.93l11.58,40.63c.77,2.71-1.26,5.4-4.08,5.4h-65.24c-2.47,0-4.42-2.11-4.23-4.57Z"/>
    </g>
    <g id="L2_infill">
      <path d="M167.27,80.69l-2.79-35.54c-1.25-15.98-14.77-28.21-30.8-27.85h0c-13.24.3-24.75,9.19-28.38,21.93l-11.58,40.63c-.77,2.71,1.26,5.4,4.08,5.4h65.24c2.47,0,4.42-2.11,4.23-4.57Z"/>
    </g>
    <g id="R1_infill">
      <path id="R1_infill" d="M549.16,125.5v-3.34c0-2.86-1.68-5.44-4.28-6.62-9.49-4.3-33.93-12.7-65.02-3.2-3.06.94-5.17,3.75-5.17,6.96v3.76s34.84-.67,74.48,2.44Z"/>
    </g>
    <g id="L1_infill">
      <path id="L1_infill" d="M165.32,123.06v-3.76c0-3.2-2.11-6.02-5.17-6.96-31.09-9.5-55.53-1.1-65.02,3.2-2.6,1.18-4.28,3.76-4.28,6.62v3.34s38.5-2.96,74.48-2.44Z"/>
    </g>
  </g>
  <g id="Outline">
    <g id="Button_outlines_behind">
      <path id="L1" d="M88.34,128.2v-6.04c0-3.82,2.26-7.31,5.75-8.9,9.4-4.26,34.72-13.11,66.78-3.31,4.15,1.27,6.94,5.03,6.94,9.35v6.3l-2.54-.04c-35.46-.51-73.86,2.4-74.25,2.43l-2.69.21ZM131.57,110.5c-16.83,0-29.48,4.62-35.42,7.31-1.71.77-2.81,2.48-2.81,4.34v.65c9.13-.63,39.98-2.57,69.48-2.28v-1.23c0-2.11-1.37-3.94-3.4-4.57-10.1-3.09-19.49-4.23-27.84-4.23Z"/>
      <path id="R1" d="M551.66,128.2l-2.7-.21c-39.06-3.06-73.88-2.44-74.23-2.43l-2.55.05v-6.31c0-4.32,2.79-8.08,6.94-9.35,32.06-9.8,57.38-.95,66.78,3.31,3.49,1.58,5.75,5.07,5.75,8.9v6.04ZM483.07,120.5c12.35,0,36.81.3,63.59,2.3v-.64c0-1.86-1.1-3.57-2.81-4.34-8.88-4.02-32.83-12.38-63.26-3.09-2.04.62-3.4,2.46-3.4,4.57v1.23c1.42-.01,3.41-.03,5.88-.03Z"/>
    </g>
    <g id="Controller">
      <path d="M72.26,503.22c-16.56,0-32.79-6.81-45.17-19.34-35.77-36.22-22.36-122.58-14.94-158.03,29.26-129.74,37.53-149.6,47.65-166.89,7.02-11.98,15.4-24.07,19.78-30.22,2.33-3.28,5.98-5.34,10-5.65,39.08-3.06,71.47-2.58,80.46-2.37,2.31.06,4.5.97,6.17,2.58l2.73,2.63c.79.76,1.83,1.18,2.93,1.18h36.97v5h-36.97c-2.4,0-4.67-.92-6.4-2.58l-2.73-2.63c-.76-.74-1.77-1.16-2.82-1.18-8.93-.21-41.11-.69-79.95,2.35-2.54.2-4.84,1.5-6.32,3.57-4.32,6.07-12.61,18.03-19.53,29.84-9.88,16.88-17.99,36.43-47.08,165.43-7.25,34.62-20.46,118.95,13.61,153.45,14.34,14.52,34.26,20.73,53.29,16.6,23.23-5.03,42.3-24.84,53.71-55.79,5.08-13.79,9.26-25.52,12.62-34.94,13.92-39.03,17.22-48.31,30.19-51.55l1.21,4.85c-10.08,2.52-12.69,9.11-26.69,48.38-3.36,9.44-7.55,21.18-12.64,34.99-12.01,32.61-32.38,53.55-57.34,58.95-4.23.91-8.5,1.36-12.74,1.36Z"/>
      <path d="M98.46,460.5c-10.71,0-23.53-1.31-38.69-4.41-28.57-5.83-42.38-20.36-48.94-31.52-7.15-12.17-7.45-22.9-7.46-23.35l5-.1-2.5.05,2.5-.06c0,.1.32,10.07,6.9,21.15,8.81,14.83,24.12,24.57,45.5,28.93,53.9,11,73.86-1.74,76.88-10.01l4.7,1.72c-3.38,9.23-16.88,17.6-43.89,17.6Z"/>
      <path d="M567.74,503.22c-4.25,0-8.51-.45-12.74-1.36-24.96-5.4-45.33-26.34-57.34-58.95-5.09-13.81-9.28-25.56-12.64-34.99-14-39.27-16.61-45.86-26.69-48.38l1.21-4.85c12.97,3.24,16.27,12.52,30.19,51.55,3.36,9.43,7.54,21.16,12.62,34.94,11.4,30.95,30.48,50.76,53.71,55.79,19.03,4.12,38.96-2.09,53.29-16.6,34.07-34.5,20.86-118.83,13.6-153.49-29.09-128.96-37.19-148.52-47.08-165.39-6.92-11.81-15.21-23.77-19.53-29.84-1.47-2.07-3.77-3.37-6.31-3.57-38.85-3.04-71.02-2.57-79.95-2.35-1.06.03-2.06.45-2.82,1.18l-2.73,2.63c-1.73,1.66-4,2.58-6.4,2.58h-36.97v-5h36.97c1.1,0,2.14-.42,2.93-1.18l2.73-2.63c1.67-1.61,3.86-2.52,6.17-2.58,8.99-.22,41.38-.69,80.46,2.37,4.02.31,7.66,2.37,10,5.65,4.37,6.14,12.76,18.23,19.78,30.22,10.13,17.29,18.39,37.15,47.65,166.86,7.43,35.48,20.84,121.84-14.93,158.06-12.37,12.53-28.61,19.34-45.17,19.34Z"/>
      <path d="M541.54,460.5c-27.01,0-40.51-8.36-43.89-17.6l4.7-1.72c3.03,8.27,22.99,21.01,76.88,10.01,21.38-4.36,36.68-14.1,45.5-28.93,6.58-11.08,6.9-21.05,6.9-21.15l5,.11c0,.45-.3,11.18-7.46,23.35-6.56,11.16-20.37,25.69-48.94,31.52-15.16,3.09-27.99,4.41-38.69,4.41Z"/> -->
      <rect x="258.62" y="354.78" width="122.75" height="5"/>
      <path d="M219.94,374.77c-33.04,0-59.92-26.88-59.92-59.92s26.88-59.91,59.92-59.91,59.92,26.88,59.92,59.91-26.88,59.92-59.92,59.92ZM219.94,259.94c-30.28,0-54.92,24.63-54.92,54.91s24.63,54.92,54.92,54.92,54.92-24.63,54.92-54.92-24.63-54.91-54.92-54.91Z"/>
      <path d="M122.78,301.15c-42.16,0-76.46-34.3-76.46-76.46s34.3-76.46,76.46-76.46,76.46,34.3,76.46,76.46-34.3,76.46-76.46,76.46ZM122.78,153.23c-39.4,0-71.46,32.06-71.46,71.46s32.06,71.46,71.46,71.46,71.46-32.06,71.46-71.46-32.06-71.46-71.46-71.46Z"/>
      <path d="M420.06,374.77c-33.04,0-59.92-26.88-59.92-59.92s26.88-59.91,59.92-59.91,59.92,26.88,59.92,59.91-26.88,59.92-59.92,59.92ZM420.06,259.94c-30.28,0-54.92,24.63-54.92,54.91s24.63,54.92,54.92,54.92,54.92-24.63,54.92-54.92-24.63-54.91-54.92-54.91Z"/>
      <path d="M517.22,301.15c-42.16,0-76.46-34.3-76.46-76.46s34.3-76.46,76.46-76.46,76.46,34.3,76.46,76.46-34.3,76.46-76.46,76.46ZM517.22,153.23c-39.4,0-71.46,32.06-71.46,71.46s32.06,71.46,71.46,71.46,71.46-32.06,71.46-71.46-32.06-71.46-71.46-71.46Z"/>
      <path id="L3_outline_" d="M219.94,354.21c-21.7,0-39.36-17.66-39.36-39.36s17.66-39.36,39.36-39.36,39.36,17.66,39.36,39.36-17.66,39.36-39.36,39.36ZM219.94,280.49c-18.95,0-34.36,15.41-34.36,34.36s15.41,34.36,34.36,34.36,34.36-15.41,34.36-34.36-15.41-34.36-34.36-34.36Z"/>
      <path id="R3_outline_" d="M420.06,354.21c-21.7,0-39.36-17.66-39.36-39.36s17.66-39.36,39.36-39.36,39.36,17.66,39.36,39.36-17.66,39.36-39.36,39.36ZM420.06,280.49c-18.95,0-34.36,15.41-34.36,34.36s15.41,34.36,34.36,34.36,34.36-15.41,34.36-34.36-15.41-34.36-34.36-34.36Z"/>
      <g id="Speaker_grill">
        <circle class="st2" cx="297.85" cy="262.87" r="2.73"/>
        <circle class="st2" cx="309.07" cy="262.87" r="2.73"/>
        <circle class="st2" cx="320.29" cy="262.87" r="2.73"/>
        <circle class="st2" cx="331.51" cy="262.87" r="2.73"/>
        <circle class="st2" cx="303.46" cy="270.62" r="2.73"/>
        <circle class="st2" cx="314.68" cy="270.62" r="2.73"/>
        <circle class="st2" cx="325.9" cy="270.62" r="2.73"/>
        <!-- <circle class="st2" cx="308.78" cy="279" r="2.73"/> -->
        <!-- <circle class="st2" cx="320" cy="279" r="2.73"/> -->
        <!-- <circle class="st2" cx="331.22" cy="279" r="2.73"/> -->
        <circle class="st2" cx="337.12" cy="270.62" r="2.73"/>
        <circle class="st2" cx="342.73" cy="262.87" r="2.73"/>
      </g>
    </g>
    <g id="Button_outlines">
      <path id="L2_outline" d="M163.04,87.76h-65.24c-2.13,0-4.09-.98-5.38-2.68s-1.69-3.86-1.1-5.91l11.58-40.63c3.95-13.88,16.3-23.42,30.73-23.74,17.35-.38,31.99,12.85,33.35,30.15l2.79,35.54c.15,1.87-.5,3.73-1.77,5.1-1.27,1.38-3.08,2.16-4.95,2.16ZM134.37,19.8c-.21,0-.42,0-.63,0-12.22.27-22.68,8.36-26.03,20.11l-11.58,40.63c-.15.53-.05,1.09.28,1.53.33.44.84.69,1.39.69h65.24c.49,0,.94-.2,1.28-.56s.5-.83.46-1.32l-2.79-35.54c-1.13-14.44-13.21-25.55-27.62-25.55Z"/>
      <path id="R2_outline" d="M542.2,87.76h-65.24c-1.87,0-3.68-.79-4.95-2.16-1.27-1.38-1.92-3.24-1.77-5.1l2.79-35.54c1.36-17.3,16.01-30.5,33.35-30.15,14.42.32,26.77,9.86,30.73,23.74l11.58,40.63c.58,2.05.18,4.21-1.1,5.91s-3.25,2.68-5.38,2.68ZM505.63,19.8c-14.42,0-26.49,11.11-27.62,25.55l-2.79,35.54c-.04.49.12.96.46,1.32s.79.56,1.28.56h65.24c.55,0,1.06-.25,1.39-.69.33-.44.44-1,.28-1.53l-11.58-40.63c-3.35-11.75-13.81-19.84-26.03-20.11-.21,0-.42,0-.63,0Z"/>
      <path id="Create_outline" d="M193.86,179.05c-5.93,0-10.76-4.83-10.76-10.76v-16.03c0-5.93,4.83-10.76,10.76-10.76s10.76,4.83,10.76,10.76v16.03c0,5.93-4.83,10.76-10.76,10.76ZM193.86,146.51c-3.18,0-5.76,2.58-5.76,5.76v16.03c0,3.18,2.58,5.76,5.76,5.76s5.76-2.58,5.76-5.76v-16.03c0-3.18-2.58-5.76-5.76-5.76Z"/>
      <path id="Options_outline" d="M446.14,179.05c-5.93,0-10.76-4.83-10.76-10.76v-16.03c0-5.93,4.83-10.76,10.76-10.76s10.76,4.83,10.76,10.76v16.03c0,5.93-4.83,10.76-10.76,10.76ZM446.14,146.51c-3.18,0-5.76,2.58-5.76,5.76v16.03c0,3.18,2.58,5.76,5.76,5.76s5.76-2.58,5.76-5.76v-16.03c0-3.18-2.58-5.76-5.76-5.76Z"/>
      <path id="Left_outline" d="M89.18,245.11h-6.9c-7.8,0-14.14-6.34-14.14-14.14v-12.57c0-7.8,6.34-14.14,14.14-14.14h6.44c5.71,0,11.12,2.19,15.23,6.17l7.89,7.64c1.97,1.92,3.07,4.59,3.01,7.34-.06,2.75-1.26,5.37-3.31,7.2l-7.79,6.95c-4.01,3.58-9.19,5.55-14.57,5.55ZM82.28,209.27c-5.04,0-9.14,4.1-9.14,9.14v12.57c0,5.04,4.1,9.14,9.14,9.14h6.9c4.15,0,8.14-1.52,11.24-4.28l7.79-6.95c1.03-.92,1.61-2.19,1.64-3.57.03-1.39-.5-2.68-1.5-3.64l-7.89-7.64c-3.17-3.07-7.34-4.76-11.75-4.76h-6.44Z"/>
      <path id="Right_outline" d="M163.28,245.11h-6.44c-5.71,0-11.12-2.19-15.23-6.17l-7.89-7.64c-1.97-1.92-3.07-4.59-3.01-7.34.06-2.75,1.26-5.37,3.31-7.2l7.79-6.95c4.01-3.58,9.19-5.55,14.57-5.55h6.9c7.8,0,14.14,6.34,14.14,14.14v12.57c0,7.8-6.34,14.14-14.14,14.14ZM156.38,209.27c-4.15,0-8.14,1.52-11.24,4.28l-7.79,6.95c-1.03.92-1.61,2.19-1.64,3.57-.03,1.39.5,2.68,1.5,3.64l7.89,7.64c3.17,3.07,7.34,4.76,11.75,4.76h6.44c5.04,0,9.14-4.1,9.14-9.14v-12.57c0-5.04-4.1-9.14-9.14-9.14h-6.9Z"/>
      <path id="Down_outline" d="M129.07,279.32h-12.57c-7.8,0-14.14-6.34-14.14-14.14v-6.44c0-5.71,2.19-11.12,6.17-15.23l7.64-7.89c1.92-1.97,4.59-3.05,7.34-3.01,2.75.06,5.37,1.26,7.2,3.31l6.95,7.79c3.58,4.01,5.55,9.19,5.55,14.57v6.9c0,7.8-6.34,14.14-14.14,14.14ZM123.29,237.62c-1.35,0-2.6.53-3.54,1.5l-7.64,7.89c-3.07,3.17-4.76,7.34-4.76,11.75v6.44c0,5.04,4.1,9.14,9.14,9.14h12.57c5.04,0,9.14-4.1,9.14-9.14v-6.9c0-4.15-1.52-8.14-4.28-11.24l-6.95-7.79c-.92-1.03-2.19-1.61-3.57-1.64-.04,0-.07,0-.11,0Z"/>
      <path id="Up_outline" d="M122.26,216.76c-.07,0-.13,0-.2,0-2.75-.06-5.37-1.26-7.2-3.31l-6.95-7.79c-3.58-4.01-5.55-9.19-5.55-14.57v-6.9c0-7.8,6.34-14.14,14.14-14.14h12.57c7.8,0,14.14,6.34,14.14,14.14v6.44c0,5.71-2.19,11.12-6.17,15.23l-7.64,7.89c-1.87,1.92-4.46,3.02-7.13,3.02ZM116.49,175.06c-5.04,0-9.14,4.1-9.14,9.14v6.9c0,4.15,1.52,8.14,4.28,11.24l6.95,7.79c.92,1.03,2.19,1.61,3.57,1.64,1.38.02,2.68-.5,3.64-1.5l7.64-7.89c3.07-3.17,4.76-7.34,4.76-11.75v-6.44c0-5.04-4.1-9.14-9.14-9.14h-12.57Z"/>
      <path id="Cross_outline" d="M517.22,292.79c-12.23,0-22.17-9.95-22.17-22.17s9.95-22.17,22.17-22.17,22.17,9.95,22.17,22.17-9.95,22.17-22.17,22.17ZM517.22,253.44c-9.47,0-17.17,7.7-17.17,17.17s7.7,17.17,17.17,17.17,17.17-7.7,17.17-17.17-7.7-17.17-17.17-17.17Z"/>
      <path id="Triangle_outline" d="M517.22,201.15c-12.23,0-22.17-9.95-22.17-22.17s9.95-22.17,22.17-22.17,22.17,9.95,22.17,22.17-9.95,22.17-22.17,22.17ZM517.22,161.81c-9.47,0-17.17,7.7-17.17,17.17s7.7,17.17,17.17,17.17,17.17-7.7,17.17-17.17-7.7-17.17-17.17-17.17Z"/>
      <path id="Circle_outline" d="M563.04,246.97c-12.23,0-22.17-9.95-22.17-22.17s9.95-22.17,22.17-22.17,22.17,9.95,22.17,22.17-9.95,22.17-22.17,22.17ZM563.04,207.63c-9.47,0-17.17,7.7-17.17,17.17s7.7,17.17,17.17,17.17,17.17-7.7,17.17-17.17-7.7-17.17-17.17-17.17Z"/>
      <path id="Square_outline" d="M471.4,246.97c-12.23,0-22.17-9.95-22.17-22.17s9.95-22.17,22.17-22.17,22.17,9.95,22.17,22.17-9.95,22.17-22.17,22.17ZM471.4,207.63c-9.47,0-17.17,7.7-17.17,17.17s7.7,17.17,17.17,17.17,17.17-7.7,17.17-17.17-7.7-17.17-17.17-17.17Z"/>
      <path id="PS_outline" d="M320.16,331.18c-9,0-16.32-7.32-16.32-16.32s7.32-16.32,16.32-16.32,16.32,7.32,16.32,16.32-7.32,16.32-16.32,16.32ZM320.16,303.53c-6.24,0-11.32,5.08-11.32,11.32s5.08,11.32,11.32,11.32,11.32-5.08,11.32-11.32-5.08-11.32-11.32-11.32Z"/>
    </g>
  </g>
  <g>
    <g id="Trackpad_infill" >
      <!-- smaller infill <path d="M224.42,133.65h-191.01c2.47h191.15v102.42c0,1.92-1.56,3.48-3.48,3.48h-184.19c-1.92,0-3.48-1.56-3.48-3.48v-102.42h0Z"/> -->
      <path d="M419.35,234.87v-102.38c0-2.12-1.73-3.85-3.85-3.85h-191.01c-2.12,0-3.85,1.73-3.85,3.85v102.38c0,4.13,3.36,7.5,7.5,7.5h183.71c4.13,0,7.5-3.36,7.5-7.5Z"/>
    </g>
    <g id="Trackpad_outline" >
      <path d="M415.51,123.65h-191.01c-4.88,0-8.85,3.97-8.85,8.85v102.38c0,6.89,5.61,12.5,12.5,12.5h183.71c6.89,0,12.5-5.61,12.5-12.5v-102.38c0-4.88-3.97-8.85-8.85-8.85ZM228.14,242.36c-4.13,0-7.5-3.36-7.5-7.5v-102.38c0-2.12,1.73-3.85,3.85-3.85h191.01c2.12,0,3.85,1.73,3.85,3.85v102.38c0,4.13-3.36,7.5-7.5,7.5h-183.71Z"/>
    </g>
  </g>
  <g id="L3">
    <g id="L3_infill">
      <circle cx="219.94" cy="314.85" r="36.86"/>
    </g>
    <g id="L3_outline">
      <path d="M219.94,354.21c-21.7,0-39.36-17.66-39.36-39.36s17.66-39.36,39.36-39.36,39.36,17.66,39.36,39.36-17.66,39.36-39.36,39.36ZM219.94,280.49c-18.95,0-34.36,15.41-34.36,34.36s15.41,34.36,34.36,34.36,34.36-15.41,34.36-34.36-15.41-34.36-34.36-34.36Z"/>
    </g>
  </g>
  <g id="R3">
    <g id="R3_infill">
      <circle cx="420.06" cy="314.85" r="36.86"/>
    </g>
    <g id="R3_outline">
      <path d="M420.06,354.21c-21.7,0-39.36-17.66-39.36-39.36s17.66-39.36,39.36-39.36,39.36,17.66,39.36,39.36-17.66,39.36-39.36,39.36ZM420.06,280.49c-18.95,0-34.36,15.41-34.36,34.36s15.41,34.36,34.36,34.36,34.36-15.41,34.36-34.36-15.41-34.36-34.36-34.36Z"/>
    </g>
  </g>
  <g id="TriggerPercentages">
    <text id="L2_percentage" x="133" y="70" font-family="Arial, sans-serif" font-size="19" font-weight="bold" fill="#1a237e" text-anchor="middle" opacity="0">0 %</text>
    <text id="R2_percentage" x="507" y="70" font-family="Arial, sans-serif" font-size="19" font-weight="bold" fill="#1a237e" text-anchor="middle" opacity="0">0 %</text>
  </g>
</svg>
